<mxfile host="Electron" agent="Mozilla/5.0 (X11; Linux x86_64) AppleWebKit/537.36 (KHTML, like Gecko) draw.io/28.1.2 Chrome/138.0.7204.243 Electron/37.4.0 Safari/537.36" version="28.1.2">
  <diagram name="ページ1" id="6oM9BLADDV5u4kcaXNlj">
    <mxGraphModel dx="475" dy="292" grid="1" gridSize="10" guides="1" tooltips="1" connect="1" arrows="1" fold="1" page="1" pageScale="1" pageWidth="827" pageHeight="1169" math="0" shadow="0">
      <root>
        <mxCell id="0" />
        <mxCell id="1" parent="0" />
        <mxCell id="tvJYjgDKnDJd225hN2Ep-2" value="" style="pointerEvents=1;verticalLabelPosition=bottom;shadow=0;dashed=0;align=center;html=1;verticalAlign=top;shape=mxgraph.electrical.waveforms.sine_wave;" parent="1" vertex="1">
          <mxGeometry x="150" y="180" width="50" height="36.18" as="geometry" />
        </mxCell>
        <mxCell id="tvJYjgDKnDJd225hN2Ep-3" value="" style="ellipse;whiteSpace=wrap;html=1;aspect=fixed;fillColor=none;" parent="1" vertex="1">
          <mxGeometry x="135" y="160" width="80" height="80" as="geometry" />
        </mxCell>
        <mxCell id="tvJYjgDKnDJd225hN2Ep-4" value="&lt;font style=&quot;font-size: 20px;&quot;&gt;Audio&lt;/font&gt;" style="text;html=1;align=center;verticalAlign=middle;whiteSpace=wrap;rounded=0;" parent="1" vertex="1">
          <mxGeometry x="150" y="100" width="60" height="30" as="geometry" />
        </mxCell>
        <mxCell id="8Xr6IJnEsklGt1RD0G-L-1" value="" style="endArrow=none;html=1;rounded=0;exitX=1;exitY=0.5;exitDx=0;exitDy=0;" parent="1" source="tvJYjgDKnDJd225hN2Ep-3" edge="1">
          <mxGeometry width="50" height="50" relative="1" as="geometry">
            <mxPoint x="330" y="210" as="sourcePoint" />
            <mxPoint x="280" y="200" as="targetPoint" />
          </mxGeometry>
        </mxCell>
        <mxCell id="8Xr6IJnEsklGt1RD0G-L-2" value="" style="triangle;whiteSpace=wrap;html=1;" parent="1" vertex="1">
          <mxGeometry x="280" y="160" width="60" height="80" as="geometry" />
        </mxCell>
        <mxCell id="8Xr6IJnEsklGt1RD0G-L-3" value="&lt;font style=&quot;font-size: 20px;&quot;&gt;AMP&lt;/font&gt;" style="text;html=1;align=center;verticalAlign=middle;whiteSpace=wrap;rounded=0;" parent="1" vertex="1">
          <mxGeometry x="280" y="100" width="60" height="30" as="geometry" />
        </mxCell>
        <mxCell id="8Xr6IJnEsklGt1RD0G-L-4" value="" style="shape=trapezoid;perimeter=trapezoidPerimeter;whiteSpace=wrap;html=1;fixedSize=1;rotation=-90;" parent="1" vertex="1">
          <mxGeometry x="370" y="170" width="120" height="60" as="geometry" />
        </mxCell>
        <mxCell id="8Xr6IJnEsklGt1RD0G-L-5" value="" style="endArrow=none;html=1;rounded=0;exitX=1;exitY=0.5;exitDx=0;exitDy=0;entryX=0.5;entryY=0;entryDx=0;entryDy=0;" parent="1" source="8Xr6IJnEsklGt1RD0G-L-2" target="8Xr6IJnEsklGt1RD0G-L-4" edge="1">
          <mxGeometry width="50" height="50" relative="1" as="geometry">
            <mxPoint x="390" y="210" as="sourcePoint" />
            <mxPoint x="440" y="160" as="targetPoint" />
          </mxGeometry>
        </mxCell>
        <mxCell id="8Xr6IJnEsklGt1RD0G-L-6" value="&lt;font style=&quot;font-size: 20px;&quot;&gt;ADC&lt;/font&gt;" style="text;html=1;align=center;verticalAlign=middle;whiteSpace=wrap;rounded=0;" parent="1" vertex="1">
          <mxGeometry x="400" y="100" width="60" height="30" as="geometry" />
        </mxCell>
        <mxCell id="8Xr6IJnEsklGt1RD0G-L-8" value="" style="endArrow=none;html=1;rounded=0;entryX=0.5;entryY=1;entryDx=0;entryDy=0;" parent="1" edge="1" target="8Xr6IJnEsklGt1RD0G-L-4">
          <mxGeometry width="50" height="50" relative="1" as="geometry">
            <mxPoint x="400" y="320" as="sourcePoint" />
            <mxPoint x="360" y="210" as="targetPoint" />
            <Array as="points">
              <mxPoint x="480" y="320" />
              <mxPoint x="480" y="200" />
            </Array>
          </mxGeometry>
        </mxCell>
        <mxCell id="uavVNQ6d4KYoGjTUstuJ-1" value="" style="rounded=0;whiteSpace=wrap;html=1;" vertex="1" parent="1">
          <mxGeometry x="350" y="290" width="90" height="60" as="geometry" />
        </mxCell>
        <mxCell id="uavVNQ6d4KYoGjTUstuJ-2" value="&lt;font style=&quot;font-size: 20px;&quot;&gt;UART Tx&lt;/font&gt;" style="text;html=1;align=center;verticalAlign=middle;whiteSpace=wrap;rounded=0;" vertex="1" parent="1">
          <mxGeometry x="350" y="250" width="90" height="30" as="geometry" />
        </mxCell>
        <mxCell id="uavVNQ6d4KYoGjTUstuJ-3" value="" style="endArrow=none;html=1;rounded=0;exitX=0;exitY=0.5;exitDx=0;exitDy=0;" edge="1" parent="1" source="uavVNQ6d4KYoGjTUstuJ-1">
          <mxGeometry width="50" height="50" relative="1" as="geometry">
            <mxPoint x="240" y="270" as="sourcePoint" />
            <mxPoint x="270" y="320" as="targetPoint" />
            <Array as="points" />
          </mxGeometry>
        </mxCell>
        <mxCell id="uavVNQ6d4KYoGjTUstuJ-7" value="&lt;font style=&quot;font-size: 20px;&quot;&gt;MOSFET&lt;/font&gt;" style="text;html=1;align=center;verticalAlign=middle;whiteSpace=wrap;rounded=0;" vertex="1" parent="1">
          <mxGeometry x="250" y="330" width="60" height="30" as="geometry" />
        </mxCell>
        <mxCell id="uavVNQ6d4KYoGjTUstuJ-8" value="" style="verticalLabelPosition=bottom;shadow=0;dashed=0;align=center;html=1;verticalAlign=top;shape=mxgraph.electrical.transistors.nmos_bulk;pointerEvents=1;rotation=-180;flipV=1;" vertex="1" parent="1">
          <mxGeometry x="230" y="285" width="40" height="70" as="geometry" />
        </mxCell>
        <mxCell id="uavVNQ6d4KYoGjTUstuJ-9" value="" style="pointerEvents=1;fillColor=strokeColor;verticalLabelPosition=bottom;shadow=0;dashed=0;align=center;html=1;verticalAlign=top;shape=mxgraph.electrical.diodes.diode;" vertex="1" parent="1">
          <mxGeometry x="180" y="280" width="50" height="20" as="geometry" />
        </mxCell>
        <mxCell id="uavVNQ6d4KYoGjTUstuJ-10" value="" style="endArrow=none;html=1;rounded=0;" edge="1" parent="1" source="uavVNQ6d4KYoGjTUstuJ-11">
          <mxGeometry width="50" height="50" relative="1" as="geometry">
            <mxPoint x="140" y="260" as="sourcePoint" />
            <mxPoint x="170" y="260" as="targetPoint" />
          </mxGeometry>
        </mxCell>
        <mxCell id="uavVNQ6d4KYoGjTUstuJ-12" value="" style="endArrow=none;html=1;rounded=0;" edge="1" parent="1">
          <mxGeometry width="50" height="50" relative="1" as="geometry">
            <mxPoint x="140" y="260" as="sourcePoint" />
            <mxPoint x="180" y="260" as="targetPoint" />
          </mxGeometry>
        </mxCell>
        <mxCell id="uavVNQ6d4KYoGjTUstuJ-11" value="" style="ellipse;whiteSpace=wrap;html=1;aspect=fixed;" vertex="1" parent="1">
          <mxGeometry x="150" y="250" width="20" height="20" as="geometry" />
        </mxCell>
        <mxCell id="uavVNQ6d4KYoGjTUstuJ-13" value="" style="endArrow=none;html=1;rounded=0;exitX=0.5;exitY=1;exitDx=0;exitDy=0;entryX=0;entryY=0.5;entryDx=0;entryDy=0;entryPerimeter=0;" edge="1" parent="1" source="uavVNQ6d4KYoGjTUstuJ-11" target="uavVNQ6d4KYoGjTUstuJ-9">
          <mxGeometry width="50" height="50" relative="1" as="geometry">
            <mxPoint x="170" y="290" as="sourcePoint" />
            <mxPoint x="220" y="240" as="targetPoint" />
            <Array as="points">
              <mxPoint x="160" y="290" />
            </Array>
          </mxGeometry>
        </mxCell>
        <mxCell id="uavVNQ6d4KYoGjTUstuJ-14" value="" style="endArrow=none;html=1;rounded=0;" edge="1" parent="1">
          <mxGeometry width="50" height="50" relative="1" as="geometry">
            <mxPoint x="210" y="370" as="sourcePoint" />
            <mxPoint x="250" y="370" as="targetPoint" />
          </mxGeometry>
        </mxCell>
        <mxCell id="uavVNQ6d4KYoGjTUstuJ-15" value="" style="endArrow=none;html=1;rounded=0;" edge="1" parent="1">
          <mxGeometry width="50" height="50" relative="1" as="geometry">
            <mxPoint x="220" y="380" as="sourcePoint" />
            <mxPoint x="240" y="380" as="targetPoint" />
          </mxGeometry>
        </mxCell>
        <mxCell id="uavVNQ6d4KYoGjTUstuJ-16" value="" style="endArrow=none;html=1;rounded=0;entryX=1;entryY=1;entryDx=0;entryDy=0;entryPerimeter=0;" edge="1" parent="1" target="uavVNQ6d4KYoGjTUstuJ-8">
          <mxGeometry width="50" height="50" relative="1" as="geometry">
            <mxPoint x="230" y="370" as="sourcePoint" />
            <mxPoint x="300" y="280" as="targetPoint" />
          </mxGeometry>
        </mxCell>
        <mxCell id="uavVNQ6d4KYoGjTUstuJ-17" value="" style="endArrow=classic;html=1;rounded=0;" edge="1" parent="1">
          <mxGeometry width="50" height="50" relative="1" as="geometry">
            <mxPoint x="200" y="270" as="sourcePoint" />
            <mxPoint x="220" y="250" as="targetPoint" />
          </mxGeometry>
        </mxCell>
        <mxCell id="uavVNQ6d4KYoGjTUstuJ-18" value="" style="endArrow=classic;html=1;rounded=0;" edge="1" parent="1">
          <mxGeometry width="50" height="50" relative="1" as="geometry">
            <mxPoint x="220" y="270" as="sourcePoint" />
            <mxPoint x="240" y="250" as="targetPoint" />
          </mxGeometry>
        </mxCell>
        <mxCell id="uavVNQ6d4KYoGjTUstuJ-19" value="&lt;font style=&quot;font-size: 20px;&quot;&gt;LED&lt;/font&gt;" style="text;html=1;align=center;verticalAlign=middle;whiteSpace=wrap;rounded=0;" vertex="1" parent="1">
          <mxGeometry x="155" y="300" width="60" height="30" as="geometry" />
        </mxCell>
        <mxCell id="uavVNQ6d4KYoGjTUstuJ-20" value="" style="endArrow=none;html=1;rounded=0;exitX=0.671;exitY=0.993;exitDx=0;exitDy=0;exitPerimeter=0;entryX=0.888;entryY=1.012;entryDx=0;entryDy=0;entryPerimeter=0;" edge="1" parent="1" source="uavVNQ6d4KYoGjTUstuJ-1" target="uavVNQ6d4KYoGjTUstuJ-1">
          <mxGeometry width="50" height="50" relative="1" as="geometry">
            <mxPoint x="290" y="280" as="sourcePoint" />
            <mxPoint x="430" y="360" as="targetPoint" />
            <Array as="points">
              <mxPoint x="420" y="330" />
            </Array>
          </mxGeometry>
        </mxCell>
        <mxCell id="uavVNQ6d4KYoGjTUstuJ-21" value="" style="endArrow=classic;html=1;rounded=0;" edge="1" parent="1">
          <mxGeometry width="50" height="50" relative="1" as="geometry">
            <mxPoint x="190" y="340" as="sourcePoint" />
            <mxPoint x="190" y="490" as="targetPoint" />
          </mxGeometry>
        </mxCell>
        <mxCell id="uavVNQ6d4KYoGjTUstuJ-24" style="edgeStyle=orthogonalEdgeStyle;rounded=0;orthogonalLoop=1;jettySize=auto;html=1;exitX=0;exitY=0.5;exitDx=0;exitDy=0;exitPerimeter=0;entryX=0;entryY=0.5;entryDx=0;entryDy=0;endArrow=none;endFill=0;" edge="1" parent="1" source="uavVNQ6d4KYoGjTUstuJ-22" target="uavVNQ6d4KYoGjTUstuJ-23">
          <mxGeometry relative="1" as="geometry">
            <Array as="points">
              <mxPoint x="270" y="520" />
              <mxPoint x="270" y="520" />
            </Array>
          </mxGeometry>
        </mxCell>
        <mxCell id="uavVNQ6d4KYoGjTUstuJ-22" value="" style="pointerEvents=1;fillColor=strokeColor;verticalLabelPosition=bottom;shadow=0;dashed=0;align=center;html=1;verticalAlign=top;shape=mxgraph.electrical.diodes.diode;rotation=-180;" vertex="1" parent="1">
          <mxGeometry x="180" y="510" width="50" height="20" as="geometry" />
        </mxCell>
        <mxCell id="uavVNQ6d4KYoGjTUstuJ-34" style="edgeStyle=orthogonalEdgeStyle;rounded=0;orthogonalLoop=1;jettySize=auto;html=1;exitX=1;exitY=0.5;exitDx=0;exitDy=0;entryX=0.5;entryY=1;entryDx=0;entryDy=0;endArrow=none;endFill=0;" edge="1" parent="1" source="uavVNQ6d4KYoGjTUstuJ-23">
          <mxGeometry relative="1" as="geometry">
            <mxPoint x="400" y="520" as="targetPoint" />
          </mxGeometry>
        </mxCell>
        <mxCell id="uavVNQ6d4KYoGjTUstuJ-23" value="" style="triangle;whiteSpace=wrap;html=1;" vertex="1" parent="1">
          <mxGeometry x="280" y="480" width="60" height="80" as="geometry" />
        </mxCell>
        <mxCell id="uavVNQ6d4KYoGjTUstuJ-26" value="" style="endArrow=classic;html=1;rounded=0;" edge="1" parent="1">
          <mxGeometry width="50" height="50" relative="1" as="geometry">
            <mxPoint x="220" y="480" as="sourcePoint" />
            <mxPoint x="200" y="500" as="targetPoint" />
          </mxGeometry>
        </mxCell>
        <mxCell id="uavVNQ6d4KYoGjTUstuJ-28" value="" style="endArrow=classic;html=1;rounded=0;" edge="1" parent="1">
          <mxGeometry width="50" height="50" relative="1" as="geometry">
            <mxPoint x="240" y="480" as="sourcePoint" />
            <mxPoint x="220" y="500" as="targetPoint" />
          </mxGeometry>
        </mxCell>
        <mxCell id="uavVNQ6d4KYoGjTUstuJ-29" value="" style="endArrow=none;html=1;rounded=0;" edge="1" parent="1">
          <mxGeometry width="50" height="50" relative="1" as="geometry">
            <mxPoint x="140" y="559" as="sourcePoint" />
            <mxPoint x="180" y="559" as="targetPoint" />
          </mxGeometry>
        </mxCell>
        <mxCell id="uavVNQ6d4KYoGjTUstuJ-30" value="" style="endArrow=none;html=1;rounded=0;" edge="1" parent="1">
          <mxGeometry width="50" height="50" relative="1" as="geometry">
            <mxPoint x="150" y="569" as="sourcePoint" />
            <mxPoint x="170" y="569" as="targetPoint" />
          </mxGeometry>
        </mxCell>
        <mxCell id="uavVNQ6d4KYoGjTUstuJ-31" value="" style="endArrow=none;html=1;rounded=0;entryX=1;entryY=0.5;entryDx=0;entryDy=0;entryPerimeter=0;" edge="1" parent="1" target="uavVNQ6d4KYoGjTUstuJ-22">
          <mxGeometry width="50" height="50" relative="1" as="geometry">
            <mxPoint x="160" y="559" as="sourcePoint" />
            <mxPoint x="140" y="500" as="targetPoint" />
            <Array as="points">
              <mxPoint x="160" y="520" />
            </Array>
          </mxGeometry>
        </mxCell>
        <mxCell id="uavVNQ6d4KYoGjTUstuJ-35" value="&lt;font style=&quot;font-size: 20px;&quot;&gt;TIA&lt;/font&gt;" style="text;html=1;align=center;verticalAlign=middle;whiteSpace=wrap;rounded=0;" vertex="1" parent="1">
          <mxGeometry x="280" y="440" width="60" height="30" as="geometry" />
        </mxCell>
        <mxCell id="uavVNQ6d4KYoGjTUstuJ-37" value="" style="endArrow=none;html=1;rounded=0;exitX=1;exitY=0.5;exitDx=0;exitDy=0;entryX=0.5;entryY=1;entryDx=0;entryDy=0;" edge="1" parent="1" source="uavVNQ6d4KYoGjTUstuJ-39" target="uavVNQ6d4KYoGjTUstuJ-38">
          <mxGeometry width="50" height="50" relative="1" as="geometry">
            <mxPoint x="460" y="520" as="sourcePoint" />
            <mxPoint x="560" y="570" as="targetPoint" />
            <Array as="points">
              <mxPoint x="480" y="520" />
              <mxPoint x="480" y="640" />
            </Array>
          </mxGeometry>
        </mxCell>
        <mxCell id="uavVNQ6d4KYoGjTUstuJ-46" style="edgeStyle=orthogonalEdgeStyle;rounded=0;orthogonalLoop=1;jettySize=auto;html=1;exitX=0.5;exitY=0;exitDx=0;exitDy=0;entryX=0;entryY=0.5;entryDx=0;entryDy=0;endArrow=none;endFill=0;" edge="1" parent="1" source="uavVNQ6d4KYoGjTUstuJ-38" target="uavVNQ6d4KYoGjTUstuJ-45">
          <mxGeometry relative="1" as="geometry" />
        </mxCell>
        <mxCell id="uavVNQ6d4KYoGjTUstuJ-38" value="" style="shape=trapezoid;perimeter=trapezoidPerimeter;whiteSpace=wrap;html=1;fixedSize=1;rotation=-90;" vertex="1" parent="1">
          <mxGeometry x="370" y="610" width="120" height="60" as="geometry" />
        </mxCell>
        <mxCell id="uavVNQ6d4KYoGjTUstuJ-39" value="" style="rounded=0;whiteSpace=wrap;html=1;" vertex="1" parent="1">
          <mxGeometry x="350" y="490" width="90" height="60" as="geometry" />
        </mxCell>
        <mxCell id="uavVNQ6d4KYoGjTUstuJ-40" value="&lt;font style=&quot;font-size: 20px;&quot;&gt;UART Rx&lt;/font&gt;" style="text;html=1;align=center;verticalAlign=middle;whiteSpace=wrap;rounded=0;" vertex="1" parent="1">
          <mxGeometry x="340" y="440" width="105" height="30" as="geometry" />
        </mxCell>
        <mxCell id="uavVNQ6d4KYoGjTUstuJ-41" value="" style="endArrow=none;html=1;rounded=0;exitX=0.671;exitY=0.993;exitDx=0;exitDy=0;exitPerimeter=0;entryX=0.888;entryY=1.012;entryDx=0;entryDy=0;entryPerimeter=0;" edge="1" parent="1">
          <mxGeometry width="50" height="50" relative="1" as="geometry">
            <mxPoint x="414" y="550" as="sourcePoint" />
            <mxPoint x="434" y="551" as="targetPoint" />
            <Array as="points">
              <mxPoint x="424" y="530" />
            </Array>
          </mxGeometry>
        </mxCell>
        <mxCell id="uavVNQ6d4KYoGjTUstuJ-42" value="&lt;font style=&quot;font-size: 20px;&quot;&gt;DAC&lt;/font&gt;" style="text;html=1;align=center;verticalAlign=middle;whiteSpace=wrap;rounded=0;" vertex="1" parent="1">
          <mxGeometry x="400" y="550" width="60" height="30" as="geometry" />
        </mxCell>
        <mxCell id="uavVNQ6d4KYoGjTUstuJ-43" value="" style="pointerEvents=1;verticalLabelPosition=bottom;shadow=0;dashed=0;align=center;html=1;verticalAlign=top;shape=mxgraph.electrical.electro-mechanical.loudspeaker;rotation=-180;" vertex="1" parent="1">
          <mxGeometry x="155" y="592.5" width="65" height="95" as="geometry" />
        </mxCell>
        <mxCell id="uavVNQ6d4KYoGjTUstuJ-45" value="" style="triangle;whiteSpace=wrap;html=1;rotation=-180;" vertex="1" parent="1">
          <mxGeometry x="280" y="600" width="60" height="80" as="geometry" />
        </mxCell>
        <mxCell id="uavVNQ6d4KYoGjTUstuJ-47" style="edgeStyle=orthogonalEdgeStyle;rounded=0;orthogonalLoop=1;jettySize=auto;html=1;exitX=1;exitY=0.5;exitDx=0;exitDy=0;entryX=0;entryY=0.6;entryDx=0;entryDy=0;entryPerimeter=0;endArrow=none;endFill=0;" edge="1" parent="1" source="uavVNQ6d4KYoGjTUstuJ-45" target="uavVNQ6d4KYoGjTUstuJ-43">
          <mxGeometry relative="1" as="geometry" />
        </mxCell>
        <mxCell id="uavVNQ6d4KYoGjTUstuJ-48" value="" style="endArrow=none;html=1;rounded=0;" edge="1" parent="1">
          <mxGeometry width="50" height="50" relative="1" as="geometry">
            <mxPoint x="200" y="689" as="sourcePoint" />
            <mxPoint x="240" y="689" as="targetPoint" />
          </mxGeometry>
        </mxCell>
        <mxCell id="uavVNQ6d4KYoGjTUstuJ-49" value="" style="endArrow=none;html=1;rounded=0;" edge="1" parent="1">
          <mxGeometry width="50" height="50" relative="1" as="geometry">
            <mxPoint x="210" y="699" as="sourcePoint" />
            <mxPoint x="230" y="699" as="targetPoint" />
          </mxGeometry>
        </mxCell>
        <mxCell id="uavVNQ6d4KYoGjTUstuJ-50" value="" style="endArrow=none;html=1;rounded=0;" edge="1" parent="1">
          <mxGeometry width="50" height="50" relative="1" as="geometry">
            <mxPoint x="220" y="689" as="sourcePoint" />
            <mxPoint x="220" y="650" as="targetPoint" />
            <Array as="points">
              <mxPoint x="220" y="650" />
            </Array>
          </mxGeometry>
        </mxCell>
        <mxCell id="uavVNQ6d4KYoGjTUstuJ-51" value="&lt;font style=&quot;font-size: 20px;&quot;&gt;AMP&lt;/font&gt;" style="text;html=1;align=center;verticalAlign=middle;whiteSpace=wrap;rounded=0;" vertex="1" parent="1">
          <mxGeometry x="280" y="550" width="60" height="30" as="geometry" />
        </mxCell>
      </root>
    </mxGraphModel>
  </diagram>
</mxfile>
